<svg width="25" height="25" viewBox="0 0 25 25" fill="none" xmlns="http://www.w3.org/2000/svg">
<path d="M8.2883 10.8516H7.67811C6.84542 10.8226 6.01543 10.9589 5.23964 11.2519C4.46386 11.545 3.75883 11.9887 3.16833 12.5554L3 12.7447V18.3427H5.86157V15.1651L6.24733 14.7459L6.42267 14.5498C7.33579 13.6456 8.47261 12.9801 9.7261 12.6162C9.09852 12.1559 8.60356 11.5484 8.2883 10.8516Z" fill="#FA4692"/>
<path d="M21.8528 12.5351C21.2623 11.9684 20.5573 11.5248 19.7815 11.2317C19.0057 10.9386 18.1757 10.8023 17.343 10.8313C17.0876 10.832 16.8324 10.8456 16.5785 10.8719C16.2574 11.5256 15.7759 12.0941 15.1758 12.5283C16.514 12.8852 17.7262 13.5863 18.6826 14.5566L18.858 14.7459L19.2367 15.1651V18.3495H22.0001V12.7244L21.8528 12.5351Z" fill="#FA4692"/>
<path d="M7.65714 9.53294H7.87457C7.77354 8.69677 7.92575 7.8503 8.3128 7.09568C8.69986 6.34107 9.30522 5.71058 10.0558 5.28031C9.78373 4.87963 9.40836 4.55392 8.96646 4.3351C8.52456 4.11627 8.03128 4.01183 7.53492 4.03199C7.03856 4.05216 6.55615 4.19624 6.13491 4.45012C5.71367 4.70401 5.36806 5.059 5.13191 5.48033C4.89576 5.90167 4.77717 6.3749 4.78776 6.85368C4.79835 7.33247 4.93774 7.8004 5.1923 8.21165C5.44686 8.6229 5.80785 8.96338 6.23992 9.19973C6.672 9.43609 7.16035 9.56022 7.65714 9.55998V9.53294Z" fill="#FA4692"/>
<path d="M17.0067 9.02621C17.0152 9.1816 17.0152 9.33732 17.0067 9.49271C17.1413 9.51328 17.2772 9.52458 17.4135 9.52652H17.5468C18.0414 9.5011 18.5207 9.35265 18.9382 9.09563C19.3556 8.83861 19.6969 8.48178 19.9288 8.05988C20.1607 7.63798 20.2753 7.16538 20.2615 6.6881C20.2477 6.21082 20.1059 5.74512 19.8499 5.33633C19.594 4.92755 19.2326 4.58962 18.801 4.35544C18.3693 4.12126 17.8821 3.99881 17.3868 4.00001C16.8915 4.00121 16.4049 4.12602 15.9745 4.36229C15.5441 4.59857 15.1845 4.93825 14.9307 5.34826C15.5655 5.74779 16.0874 6.29297 16.4498 6.9349C16.8121 7.57682 17.0035 8.29542 17.0067 9.02621Z" fill="#FA4692"/>
<path d="M12.4056 12.055C14.1371 12.055 15.5407 10.702 15.5407 9.03288C15.5407 7.3638 14.1371 6.01074 12.4056 6.01074C10.6741 6.01074 9.27051 7.3638 9.27051 9.03288C9.27051 10.702 10.6741 12.055 12.4056 12.055Z" fill="#FA4692"/>
<path d="M12.5732 13.6641C11.6572 13.6285 10.7433 13.7718 9.88628 14.0855C9.02929 14.3993 8.247 14.8769 7.58647 15.4896L7.41113 15.6789V19.9586C7.41387 20.098 7.44507 20.2355 7.50295 20.3633C7.56083 20.491 7.64426 20.6066 7.74847 20.7033C7.85268 20.7999 7.97563 20.8759 8.1103 20.9268C8.24496 20.9776 8.38871 21.0024 8.53332 20.9998H16.592C16.7366 21.0024 16.8804 20.9776 17.015 20.9268C17.1497 20.8759 17.2727 20.7999 17.3769 20.7033C17.4811 20.6066 17.5645 20.491 17.6224 20.3633C17.6803 20.2355 17.7115 20.098 17.7142 19.9586V15.6924L17.5459 15.4896C16.8896 14.875 16.1101 14.396 15.255 14.0821C14.3999 13.7682 13.4873 13.626 12.5732 13.6641Z" fill="#FA4692"/>
</svg>
