<svg width="25" height="25" viewBox="0 0 25 25" fill="none" xmlns="http://www.w3.org/2000/svg">
<path d="M4 13.6129C4 12.8258 4.32565 12.0709 4.90531 11.5144C5.48496 10.9578 6.27115 10.6451 7.09091 10.6451H17.9091C18.7289 10.6451 19.515 10.9578 20.0947 11.5144C20.6744 12.0709 21 12.8258 21 13.6129V21.0322C21 21.8193 20.6744 22.5742 20.0947 23.1307C19.515 23.6873 18.7289 24 17.9091 24H7.09091C6.27115 24 5.48496 23.6873 4.90531 23.1307C4.32565 22.5742 4 21.8193 4 21.0322V13.6129Z" fill="#FA4692"/>
<path fill-rule="evenodd" clip-rule="evenodd" d="M7.09082 6.19354C7.09082 4.81613 7.66071 3.49513 8.67511 2.52115C9.68951 1.54718 11.0653 1 12.4999 1C13.9345 1 15.3103 1.54718 16.3247 2.52115C17.3391 3.49513 17.909 4.81613 17.909 6.19354V10.6452H16.3635V6.19354C16.3635 5.20968 15.9565 4.26611 15.2319 3.57041C14.5073 2.87471 13.5246 2.48387 12.4999 2.48387C11.4752 2.48387 10.4925 2.87471 9.76791 3.57041C9.04334 4.26611 8.63627 5.20968 8.63627 6.19354V10.6452H7.09082V6.19354Z" fill="#FA4692"/>
</svg>
