<svg width="25" height="25" viewBox="0 0 25 25" fill="none" xmlns="http://www.w3.org/2000/svg">
<path d="M19.2857 16.5714C19.6603 16.5714 20.0102 16.6421 20.3354 16.7835C20.6676 16.9249 20.9574 17.1192 21.2048 17.3666C21.4522 17.614 21.6466 17.9038 21.7879 18.236C21.9293 18.5612 22 18.9111 22 19.2857C22 19.6603 21.9293 20.0138 21.7879 20.346C21.6466 20.6711 21.4522 20.9574 21.2048 21.2048C20.9574 21.4522 20.6676 21.6466 20.3354 21.7879C20.0102 21.9293 19.6603 22 19.2857 22C18.9111 22 18.5577 21.9293 18.2254 21.7879C17.9003 21.6466 17.614 21.4522 17.3666 21.2048C17.1192 20.9574 16.9249 20.6711 16.7835 20.346C16.6421 20.0138 16.5714 19.6603 16.5714 19.2857C16.5714 18.7839 16.6951 18.3244 16.9425 17.9074L13.8783 14.8432C13.4613 15.0906 13.0019 15.2143 12.5 15.2143C11.9981 15.2143 11.5387 15.0906 11.1217 14.8432L8.05748 17.9074C8.30487 18.3244 8.42857 18.7839 8.42857 19.2857C8.42857 19.6603 8.35789 20.0138 8.21652 20.346C8.07515 20.6711 7.88077 20.9574 7.63337 21.2048C7.38597 21.4522 7.09617 21.6466 6.76395 21.7879C6.4388 21.9293 6.08891 22 5.71429 22C5.33966 22 4.98624 21.9293 4.65402 21.7879C4.32887 21.6466 4.0426 21.4522 3.7952 21.2048C3.54781 20.9574 3.35342 20.6711 3.21205 20.346C3.07068 20.0138 3 19.6603 3 19.2857C3 18.9111 3.07068 18.5612 3.21205 18.236C3.35342 17.9038 3.54781 17.614 3.7952 17.3666C4.0426 17.1192 4.32887 16.9249 4.65402 16.7835C4.98624 16.6421 5.33966 16.5714 5.71429 16.5714C6.21615 16.5714 6.6756 16.6951 7.09263 16.9425L10.1568 13.8783C9.90941 13.4613 9.78571 13.0019 9.78571 12.5C9.78571 11.9981 9.90941 11.5387 10.1568 11.1217L7.09263 8.05748C6.6756 8.30487 6.21615 8.42857 5.71429 8.42857C5.33966 8.42857 4.98624 8.35789 4.65402 8.21652C4.32887 8.07515 4.0426 7.88077 3.7952 7.63337C3.54781 7.38597 3.35342 7.0997 3.21205 6.77455C3.07068 6.44234 3 6.08891 3 5.71429C3 5.33966 3.07068 4.98977 3.21205 4.66462C3.35342 4.3324 3.54781 4.0426 3.7952 3.7952C4.0426 3.54781 4.32887 3.35342 4.65402 3.21205C4.98624 3.07068 5.33966 3 5.71429 3C6.08891 3 6.4388 3.07068 6.76395 3.21205C7.09617 3.35342 7.38597 3.54781 7.63337 3.7952C7.88077 4.0426 8.07515 4.3324 8.21652 4.66462C8.35789 4.98977 8.42857 5.33966 8.42857 5.71429C8.42857 6.21615 8.30487 6.6756 8.05748 7.09263L11.1217 10.1568C11.5387 9.90941 11.9981 9.78571 12.5 9.78571C13.0019 9.78571 13.4613 9.90941 13.8783 10.1568L16.9425 7.09263C16.6951 6.6756 16.5714 6.21615 16.5714 5.71429C16.5714 5.33966 16.6421 4.98977 16.7835 4.66462C16.9249 4.3324 17.1192 4.0426 17.3666 3.7952C17.614 3.54781 17.9003 3.35342 18.2254 3.21205C18.5577 3.07068 18.9111 3 19.2857 3C19.6603 3 20.0102 3.07068 20.3354 3.21205C20.6676 3.35342 20.9574 3.54781 21.2048 3.7952C21.4522 4.0426 21.6466 4.3324 21.7879 4.66462C21.9293 4.98977 22 5.33966 22 5.71429C22 6.08891 21.9293 6.44234 21.7879 6.77455C21.6466 7.0997 21.4522 7.38597 21.2048 7.63337C20.9574 7.88077 20.6676 8.07515 20.3354 8.21652C20.0102 8.35789 19.6603 8.42857 19.2857 8.42857C18.7839 8.42857 18.3244 8.30487 17.9074 8.05748L14.8432 11.1217C15.0906 11.5387 15.2143 11.9981 15.2143 12.5C15.2143 13.0019 15.0906 13.4613 14.8432 13.8783L17.9074 16.9425C18.3244 16.6951 18.7839 16.5714 19.2857 16.5714ZM19.2857 4.35714C19.0949 4.35714 18.9182 4.39249 18.7556 4.46317C18.593 4.53385 18.4481 4.63281 18.3209 4.76004C18.2007 4.88021 18.1053 5.02158 18.0346 5.18415C17.9639 5.34673 17.9286 5.52344 17.9286 5.71429C17.9286 5.90513 17.9639 6.08185 18.0346 6.24442C18.1053 6.40699 18.2007 6.5519 18.3209 6.67913C18.4481 6.79929 18.593 6.89472 18.7556 6.9654C18.9182 7.03609 19.0949 7.07143 19.2857 7.07143C19.4766 7.07143 19.6533 7.03609 19.8158 6.9654C19.9784 6.89472 20.1198 6.79929 20.24 6.67913C20.3672 6.5519 20.4661 6.40699 20.5368 6.24442C20.6075 6.08185 20.6429 5.90513 20.6429 5.71429C20.6429 5.52344 20.6075 5.34673 20.5368 5.18415C20.4661 5.02158 20.3672 4.88021 20.24 4.76004C20.1198 4.63281 19.9784 4.53385 19.8158 4.46317C19.6533 4.39249 19.4766 4.35714 19.2857 4.35714ZM4.35714 5.71429C4.35714 5.90513 4.39249 6.08185 4.46317 6.24442C4.53385 6.40699 4.62928 6.5519 4.74944 6.67913C4.87667 6.79929 5.02158 6.89472 5.18415 6.9654C5.34673 7.03609 5.52344 7.07143 5.71429 7.07143C5.90513 7.07143 6.08185 7.03609 6.24442 6.9654C6.40699 6.89472 6.54836 6.79929 6.66853 6.67913C6.79576 6.5519 6.89472 6.40699 6.9654 6.24442C7.03609 6.08185 7.07143 5.90513 7.07143 5.71429C7.07143 5.52344 7.03609 5.34673 6.9654 5.18415C6.89472 5.02158 6.79576 4.88021 6.66853 4.76004C6.54836 4.63281 6.40699 4.53385 6.24442 4.46317C6.08185 4.39249 5.90513 4.35714 5.71429 4.35714C5.52344 4.35714 5.34673 4.39249 5.18415 4.46317C5.02158 4.53385 4.87667 4.63281 4.74944 4.76004C4.62928 4.88021 4.53385 5.02158 4.46317 5.18415C4.39249 5.34673 4.35714 5.52344 4.35714 5.71429ZM5.71429 20.6429C5.90513 20.6429 6.08185 20.6075 6.24442 20.5368C6.40699 20.4661 6.54836 20.3707 6.66853 20.2506C6.79576 20.1233 6.89472 19.9784 6.9654 19.8158C7.03609 19.6533 7.07143 19.4766 7.07143 19.2857C7.07143 19.0949 7.03609 18.9182 6.9654 18.7556C6.89472 18.593 6.79576 18.4516 6.66853 18.3315C6.54836 18.2042 6.40699 18.1053 6.24442 18.0346C6.08185 17.9639 5.90513 17.9286 5.71429 17.9286C5.52344 17.9286 5.34673 17.9639 5.18415 18.0346C5.02158 18.1053 4.87667 18.2042 4.74944 18.3315C4.62928 18.4516 4.53385 18.593 4.46317 18.7556C4.39249 18.9182 4.35714 19.0949 4.35714 19.2857C4.35714 19.4766 4.39249 19.6533 4.46317 19.8158C4.53385 19.9784 4.62928 20.1233 4.74944 20.2506C4.87667 20.3707 5.02158 20.4661 5.18415 20.5368C5.34673 20.6075 5.52344 20.6429 5.71429 20.6429ZM12.5 13.8571C12.6908 13.8571 12.8676 13.8218 13.0301 13.7511C13.1927 13.6804 13.3341 13.585 13.4542 13.4648C13.5815 13.3376 13.6804 13.1927 13.7511 13.0301C13.8218 12.8676 13.8571 12.6908 13.8571 12.5C13.8571 12.3092 13.8218 12.1324 13.7511 11.9699C13.6804 11.8073 13.5815 11.6659 13.4542 11.5458C13.3341 11.4185 13.1927 11.3196 13.0301 11.2489C12.8676 11.1782 12.6908 11.1429 12.5 11.1429C12.3092 11.1429 12.1324 11.1782 11.9699 11.2489C11.8073 11.3196 11.6624 11.4185 11.5352 11.5458C11.415 11.6659 11.3196 11.8073 11.2489 11.9699C11.1782 12.1324 11.1429 12.3092 11.1429 12.5C11.1429 12.6908 11.1782 12.8676 11.2489 13.0301C11.3196 13.1927 11.415 13.3376 11.5352 13.4648C11.6624 13.585 11.8073 13.6804 11.9699 13.7511C12.1324 13.8218 12.3092 13.8571 12.5 13.8571ZM19.2857 20.6429C19.4766 20.6429 19.6533 20.6075 19.8158 20.5368C19.9784 20.4661 20.1198 20.3707 20.24 20.2506C20.3672 20.1233 20.4661 19.9784 20.5368 19.8158C20.6075 19.6533 20.6429 19.4766 20.6429 19.2857C20.6429 19.0949 20.6075 18.9182 20.5368 18.7556C20.4661 18.593 20.3672 18.4516 20.24 18.3315C20.1198 18.2042 19.9784 18.1053 19.8158 18.0346C19.6533 17.9639 19.4766 17.9286 19.2857 17.9286C19.0949 17.9286 18.9182 17.9639 18.7556 18.0346C18.593 18.1053 18.4481 18.2042 18.3209 18.3315C18.2007 18.4516 18.1053 18.593 18.0346 18.7556C17.9639 18.9182 17.9286 19.0949 17.9286 19.2857C17.9286 19.4766 17.9639 19.6533 18.0346 19.8158C18.1053 19.9784 18.2007 20.1233 18.3209 20.2506C18.4481 20.3707 18.593 20.4661 18.7556 20.5368C18.9182 20.6075 19.0949 20.6429 19.2857 20.6429Z" fill="#FA4692"/>
</svg>
