<svg width="83" height="30" viewBox="0 0 83 30" fill="none" xmlns="http://www.w3.org/2000/svg">
<path d="M8.19461 30C7.32708 30 6.70575 29.8124 6.3306 29.4373C5.95545 29.0387 5.76788 28.3001 5.76788 27.2216C5.76788 26.4947 5.83822 25.5686 5.9789 24.4431C6.14303 23.2943 6.40094 21.7233 6.75264 19.7304C7.36225 16.0492 7.84291 12.8605 8.19461 10.1641C8.40563 8.47597 8.51114 7.06917 8.51114 5.94373C8.51114 4.88863 8.12427 4.36108 7.35053 4.36108C6.74092 4.36108 6.00235 4.67761 5.13482 5.31067C4.29074 5.92028 3.35287 6.90504 2.32122 8.26495C1.99297 8.71043 1.62954 8.93318 1.23095 8.93318C0.902697 8.93318 0.609613 8.78077 0.3517 8.47597C0.117233 8.14771 0 7.78429 0 7.3857C0 7.01055 0.07034 6.6354 0.21102 6.26026C0.375147 5.86167 0.63306 5.41618 0.98476 4.9238C2.1102 3.35287 3.3646 2.14537 4.74795 1.30129C6.1313 0.433763 7.51466 0 8.89801 0C10.1876 0 11.1723 0.410317 11.8523 1.23095C12.5557 2.05158 12.9074 3.24736 12.9074 4.81829C12.9074 5.45135 12.8488 6.20164 12.7315 7.06917C12.6143 7.91325 12.5088 8.60493 12.415 9.1442C12.3212 9.68347 12.2509 10.0586 12.204 10.2696C13.5404 6.44783 15.041 3.78664 16.7057 2.28605C18.3705 0.762016 20.1993 0 22.1923 0C23.7163 0 24.9121 0.539273 25.7796 1.61782C26.6706 2.69637 27.1161 4.2204 27.1161 6.18992C27.1161 6.96366 27.0106 7.92497 26.7995 9.07386C27.9719 5.83822 29.3435 3.517 30.9144 2.1102C32.4854 0.7034 34.2907 0 36.3306 0C37.9719 0 39.2263 0.52755 40.0938 1.58265C40.9848 2.63775 41.4303 4.11489 41.4303 6.01407C41.4303 7.04572 41.2779 8.30012 40.973 9.77726L38.8277 19.8359C38.5932 21.0082 38.476 22.0164 38.476 22.8605C38.476 23.8453 38.6987 24.5838 39.1442 25.0762C39.6131 25.5686 40.2579 25.8148 41.0786 25.8148C41.8523 25.8148 42.6026 25.5569 43.3294 25.041C44.0797 24.5252 44.959 23.6694 45.9672 22.4736C46.2485 22.1454 46.5651 21.9812 46.9168 21.9812C47.2216 21.9812 47.456 22.1219 47.6202 22.4033C47.8077 22.6846 47.9015 23.0715 47.9015 23.5639C47.9015 24.4783 47.6788 25.2052 47.2333 25.7444C46.0141 27.2216 44.8066 28.3001 43.6108 28.9801C42.415 29.66 41.1606 30 39.8476 30C37.8546 30 36.2954 29.4138 35.17 28.2415C34.0446 27.0457 33.4818 25.4513 33.4818 23.4584C33.4818 22.075 33.7632 20.0703 34.3259 17.4443L35.7327 11.0082C35.7796 10.7972 35.8617 10.422 35.9789 9.88277C36.0961 9.34349 36.1899 8.83939 36.2603 8.37046C36.3306 7.87808 36.3658 7.39742 36.3658 6.92849C36.3658 6.10785 36.2016 5.49824 35.8734 5.09965C35.5686 4.67761 35.1231 4.46659 34.5369 4.46659C33.4349 4.46659 32.2743 5.18171 31.0551 6.61196C29.8593 8.01876 28.7104 10.3634 27.6084 13.646C26.5299 16.9285 25.6507 21.1958 24.9707 26.4478C24.8066 27.8546 24.5135 28.8042 24.0914 29.2966C23.6929 29.7655 23.0363 30 22.1219 30C21.3247 30 20.7386 29.8124 20.3634 29.4373C20.0117 29.0621 19.8359 28.3587 19.8359 27.3271C19.8359 26.3658 19.9648 25.1114 20.2227 23.5639C20.4807 21.993 20.8089 20.1524 21.2075 18.0422C22.2861 12.3681 22.8253 8.71043 22.8253 7.06917C22.8253 6.17819 22.6495 5.52169 22.2978 5.09965C21.9695 4.67761 21.4654 4.46659 20.7855 4.46659C19.6366 4.46659 18.4525 5.1231 17.2333 6.43611C16.0141 7.72567 14.8183 10.0352 13.646 13.3646C12.4971 16.6706 11.5358 21.1489 10.762 26.7995C10.5979 27.9953 10.3517 28.8277 10.0234 29.2966C9.71864 29.7655 9.10903 30 8.19461 30Z" fill="#FA4692"/>
<path d="M48.9715 11.1137C47.9867 11.1137 47.2481 10.891 46.7558 10.4455C46.2634 9.97655 46.0172 9.33177 46.0172 8.51114C46.0172 7.6905 46.3337 7.01055 46.9668 6.47128C47.6233 5.90856 48.4322 5.6272 49.3935 5.6272C50.261 5.6272 50.9644 5.83822 51.5037 6.26026C52.043 6.6823 52.3126 7.28019 52.3126 8.05393C52.3126 8.99179 52.0078 9.74209 51.3982 10.3048C50.7886 10.8441 49.9797 11.1137 48.9715 11.1137ZM48.6901 30C47.1661 30 46.0524 29.4607 45.349 28.3822C44.669 27.3036 44.329 25.8734 44.329 24.0914C44.329 23.0363 44.458 21.6882 44.7159 20.0469C44.9973 18.3822 45.349 16.8347 45.771 15.4045C45.982 14.6542 46.2634 14.1383 46.6151 13.857C46.9668 13.5756 47.5295 13.4349 48.3032 13.4349C49.499 13.4349 50.0969 13.8335 50.0969 14.6307C50.0969 15.2169 49.8742 16.5768 49.4287 18.7104C48.866 21.2896 48.5846 23.0363 48.5846 23.9508C48.5846 24.6542 48.6784 25.1934 48.866 25.5686C49.0535 25.9437 49.3701 26.1313 49.8155 26.1313C50.2376 26.1313 50.7651 25.8382 51.3982 25.2521C52.0313 24.6659 52.8753 23.7397 53.9304 22.4736C54.2118 22.1454 54.5283 21.9812 54.88 21.9812C55.1848 21.9812 55.4193 22.1219 55.5834 22.4033C55.771 22.6846 55.8648 23.0715 55.8648 23.5639C55.8648 24.5018 55.642 25.2286 55.1966 25.7444C52.8753 28.5815 50.7065 30 48.6901 30Z" fill="#FA4692"/>
<path d="M54.813 30C53.922 30 53.289 29.5311 52.9138 28.5932C52.5621 27.6553 52.3863 26.1547 52.3863 24.0914C52.3863 21.0434 52.82 18.1477 53.6875 15.4045C53.8986 14.7245 54.2385 14.2321 54.7075 13.9273C55.1999 13.5991 55.8798 13.4349 56.7473 13.4349C57.2163 13.4349 57.5445 13.4936 57.7321 13.6108C57.9197 13.728 58.0135 13.9508 58.0135 14.279C58.0135 14.6542 57.8376 15.4982 57.4859 16.8113C57.2514 17.7491 57.0639 18.5698 56.9232 19.2732C56.7825 19.9766 56.6653 20.8441 56.5715 21.8757C57.3452 19.8593 58.2127 18.2181 59.1741 16.9519C60.1354 15.6858 61.0732 14.7831 61.9877 14.2438C62.9255 13.7046 63.7813 13.4349 64.5551 13.4349C66.0791 13.4349 66.8411 14.197 66.8411 15.721C66.8411 16.6354 66.5832 18.2884 66.0674 20.68C65.6219 22.7198 65.3992 24.068 65.3992 24.7245C65.3992 25.6624 65.7391 26.1313 66.4191 26.1313C66.888 26.1313 67.439 25.8499 68.0721 25.2872C68.7286 24.7011 69.5961 23.7632 70.6747 22.4736C70.956 22.1454 71.2725 21.9812 71.6242 21.9812C71.929 21.9812 72.1635 22.1219 72.3276 22.4033C72.5152 22.6846 72.609 23.0715 72.609 23.5639C72.609 24.5018 72.3863 25.2286 71.9408 25.7444C70.9326 26.9871 69.8423 28.007 68.67 28.8042C67.5211 29.6014 66.2081 30 64.7309 30C63.5351 30 62.6324 29.66 62.0228 28.9801C61.4132 28.2767 61.1084 27.2685 61.1084 25.9555C61.1084 25.2989 61.2725 24.1266 61.6008 22.4385C61.9056 20.9613 62.058 19.9414 62.058 19.3787C62.058 19.0035 61.929 18.8159 61.6711 18.8159C61.3663 18.8159 60.9326 19.2145 60.3698 20.0117C59.8306 20.7855 59.2679 21.8171 58.6817 23.1067C58.119 24.3962 57.6618 25.7562 57.3101 27.1864C57.0521 28.2884 56.7473 29.0387 56.3956 29.4373C56.0674 29.8124 55.5398 30 54.813 30Z" fill="#FA4692"/>
<path d="M73.1047 30C71.7682 30 70.6779 29.4725 69.8339 28.4174C69.0132 27.3623 68.6029 25.9789 68.6029 24.2673C68.6029 22.3916 69.0367 20.6213 69.9042 18.9566C70.7717 17.2685 71.9206 15.9203 73.3509 14.9121C74.8046 13.8804 76.3403 13.3646 77.9581 13.3646C78.474 13.3646 78.8139 13.4701 78.9781 13.6811C79.1656 13.8687 79.318 14.2204 79.4353 14.7362C79.8808 14.6424 80.3731 14.5955 80.9124 14.5955C81.4751 14.5955 81.9089 14.7362 82.2137 15.0176C82.5185 15.2989 82.6709 15.6975 82.6709 16.2134C82.6709 16.7526 82.5537 17.6905 82.3192 19.027C82.0613 20.4572 81.862 21.8288 81.7213 23.1419C81.5807 24.4314 81.5103 25.8851 81.5103 27.5029C81.5103 28.3939 81.3227 29.0387 80.9476 29.4373C80.5959 29.8124 80.0097 30 79.1891 30C78.3919 30 77.794 29.8124 77.3954 29.4373C77.0203 29.0387 76.8327 28.4056 76.8327 27.5381L76.8679 26.9754C76.141 28.9918 74.8866 30 73.1047 30ZM74.4763 26.4478C75.1328 26.4478 75.7307 25.9906 76.27 25.0762C76.8092 24.1618 77.2899 22.5322 77.712 20.1876L78.3802 16.6354C77.4189 16.6589 76.5279 17.034 75.7073 17.7608C74.8866 18.4642 74.2301 19.4021 73.7377 20.5744C73.2454 21.7468 72.9992 22.9894 72.9992 24.3025C72.9992 25.0059 73.1281 25.5451 73.386 25.9203C73.6674 26.272 74.0308 26.4478 74.4763 26.4478Z" fill="#FA4692"/>
</svg>
